<mxfile host="app.diagrams.net" modified="2024-03-18T03:39:14.062Z" agent="Mozilla/5.0 (Windows NT 10.0; Win64; x64) AppleWebKit/537.36 (KHTML, like Gecko) Chrome/121.0.0.0 Safari/537.36 OPR/107.0.0.0 (Edition std-1)" etag="fROLu8nrfCDsflBb-3g6" version="24.0.7" type="github">
  <diagram name="Page-1" id="4_0LtMt2imII4EsHW1AV">
    <mxGraphModel dx="2232" dy="1121" grid="1" gridSize="10" guides="1" tooltips="1" connect="1" arrows="1" fold="1" page="1" pageScale="1" pageWidth="850" pageHeight="1100" math="0" shadow="0">
      <root>
        <mxCell id="0" />
        <mxCell id="1" parent="0" />
        <mxCell id="TmIHaRzAGBWkRhQ9T7Ws-5" value="TACC" style="swimlane;whiteSpace=wrap;html=1;" vertex="1" parent="1">
          <mxGeometry x="130" y="30" width="640" height="690" as="geometry" />
        </mxCell>
        <mxCell id="TmIHaRzAGBWkRhQ9T7Ws-7" value="COE-332 Personal Virtual Machine&amp;nbsp;" style="swimlane;whiteSpace=wrap;html=1;" vertex="1" parent="TmIHaRzAGBWkRhQ9T7Ws-5">
          <mxGeometry x="20" y="70" width="560" height="580" as="geometry" />
        </mxCell>
        <mxCell id="TmIHaRzAGBWkRhQ9T7Ws-10" value="DockerFIle" style="swimlane;whiteSpace=wrap;html=1;startSize=23;" vertex="1" parent="TmIHaRzAGBWkRhQ9T7Ws-7">
          <mxGeometry x="140" y="220" width="200" height="200" as="geometry" />
        </mxCell>
        <mxCell id="TmIHaRzAGBWkRhQ9T7Ws-19" style="edgeStyle=orthogonalEdgeStyle;rounded=0;orthogonalLoop=1;jettySize=auto;html=1;entryX=0.5;entryY=1;entryDx=0;entryDy=0;" edge="1" parent="1" source="TmIHaRzAGBWkRhQ9T7Ws-12" target="TmIHaRzAGBWkRhQ9T7Ws-17">
          <mxGeometry relative="1" as="geometry" />
        </mxCell>
        <mxCell id="TmIHaRzAGBWkRhQ9T7Ws-12" value="NASA DATA (When called)&amp;nbsp;" style="whiteSpace=wrap;html=1;aspect=fixed;" vertex="1" parent="1">
          <mxGeometry y="840" width="260" height="260" as="geometry" />
        </mxCell>
        <mxCell id="TmIHaRzAGBWkRhQ9T7Ws-14" value="API" style="ellipse;shape=cloud;whiteSpace=wrap;html=1;" vertex="1" parent="1">
          <mxGeometry x="1000" y="310" width="270" height="240" as="geometry" />
        </mxCell>
        <mxCell id="TmIHaRzAGBWkRhQ9T7Ws-17" value="Flask" style="ellipse;whiteSpace=wrap;html=1;aspect=fixed;" vertex="1" parent="1">
          <mxGeometry x="800" y="340" width="80" height="80" as="geometry" />
        </mxCell>
        <mxCell id="TmIHaRzAGBWkRhQ9T7Ws-18" style="edgeStyle=orthogonalEdgeStyle;rounded=0;orthogonalLoop=1;jettySize=auto;html=1;" edge="1" parent="1" source="TmIHaRzAGBWkRhQ9T7Ws-10" target="TmIHaRzAGBWkRhQ9T7Ws-17">
          <mxGeometry relative="1" as="geometry" />
        </mxCell>
        <mxCell id="TmIHaRzAGBWkRhQ9T7Ws-20" style="edgeStyle=orthogonalEdgeStyle;rounded=0;orthogonalLoop=1;jettySize=auto;html=1;entryX=0.07;entryY=0.4;entryDx=0;entryDy=0;entryPerimeter=0;" edge="1" parent="1" source="TmIHaRzAGBWkRhQ9T7Ws-17" target="TmIHaRzAGBWkRhQ9T7Ws-14">
          <mxGeometry relative="1" as="geometry" />
        </mxCell>
        <mxCell id="TmIHaRzAGBWkRhQ9T7Ws-21" value="User calling to the API" style="shape=umlActor;verticalLabelPosition=bottom;verticalAlign=top;html=1;outlineConnect=0;" vertex="1" parent="1">
          <mxGeometry x="1410" y="530" width="220" height="360" as="geometry" />
        </mxCell>
        <mxCell id="TmIHaRzAGBWkRhQ9T7Ws-22" style="edgeStyle=orthogonalEdgeStyle;rounded=0;orthogonalLoop=1;jettySize=auto;html=1;entryX=0.9;entryY=0.499;entryDx=0;entryDy=0;entryPerimeter=0;" edge="1" parent="1" source="TmIHaRzAGBWkRhQ9T7Ws-21" target="TmIHaRzAGBWkRhQ9T7Ws-14">
          <mxGeometry relative="1" as="geometry" />
        </mxCell>
      </root>
    </mxGraphModel>
  </diagram>
</mxfile>
